# xmcd CD database file
#
# Track frame offsets:
#	150
#	13950
#	83495
#	105352
#	182815
#
# Disc length: 2677 seconds
#
# Revision: 0
# Processed by: cddbd v1.5PL3 Copyright (c) Steve Scherf et al.
# Submitted via: CDex 1.51
#
DISCID=300a7305
DTITLE=BANANA FRITTERS - CLAIR DELUNE Vol.I DISC1.
DYEAR=1993
DGENRE=Vocal
TTITLE0=BANANA FRITTERS 〜Opening Theme〜
TTITLE1=Story ? 〜出逢い
TTITLE2=ボニーとクライドのように
TTITLE3=Story ?〜憧れ
TTITLE4=バナナフリッター
EXTD=YEAR: 1993
EXTT0=
EXTT1=
EXTT2=
EXTT3=
EXTT4=
PLAYORDER=
